<svg width="511" height="150" viewBox="0 0 511 150" fill="none" xmlns="http://www.w3.org/2000/svg">
<path d="M81.7653 82.3554C87.5174 65.1925 98.547 66.7452 100.85 70.4303L117.365 96.8598C120.961 102.616 121.889 109.279 120.473 115.413C119.056 121.548 115.305 127.137 109.544 130.737C98.0309 137.931 82.8608 134.428 75.6667 122.916L59.1518 96.4862C63.5532 103.529 75.418 101.295 81.7653 82.3554Z" fill="#FAF9F1"/>
<path d="M40.4738 20.2008C52.0602 12.961 67.3268 16.4856 74.5668 28.0719L91.1867 54.6698C86.7572 47.5817 74.8169 49.8304 68.4291 68.891C62.6403 86.1634 51.54 84.6004 49.2226 80.8918L32.6027 54.2939C28.9827 48.5006 28.0499 41.7949 29.4753 35.6208C30.9007 29.4468 34.6756 23.824 40.4738 20.2008Z" fill="#FAF9F1"/>
<path fill-rule="evenodd" clip-rule="evenodd" d="M81.1499 81.1558C87.1192 63.3449 98.4791 64.6523 101.149 68.4031L101.269 68.5838L118.682 96.4475L119.028 97.0188C119.14 97.208 119.249 97.3981 119.355 97.5889C119.599 98.0263 119.827 98.469 120.043 98.9146C120.107 99.0479 120.172 99.1809 120.234 99.315C120.249 99.347 120.264 99.3793 120.278 99.4114C120.445 99.7752 120.602 100.142 120.751 100.51C120.774 100.568 120.797 100.626 120.82 100.685C122.787 105.658 123.114 111 121.958 116.008L121.81 116.614C120.737 120.803 118.623 124.725 115.564 127.965C115.533 127.998 115.501 128.031 115.47 128.064C115.359 128.18 115.247 128.294 115.134 128.408C115.095 128.448 115.056 128.489 115.016 128.529C114.588 128.955 114.141 129.368 113.679 129.768C113.655 129.789 113.631 129.811 113.606 129.833C112.624 130.675 111.567 131.456 110.436 132.163L109.864 132.51C109.733 132.587 109.601 132.662 109.469 132.737C109.392 132.78 109.315 132.824 109.238 132.867C108.873 133.069 108.505 133.262 108.135 133.445C108.076 133.474 108.016 133.501 107.956 133.53C107.824 133.594 107.691 133.659 107.557 133.72C107.254 133.861 106.949 133.992 106.643 134.12C106.552 134.158 106.462 134.196 106.371 134.233C106.282 134.269 106.193 134.302 106.105 134.337C106.005 134.376 105.906 134.415 105.806 134.453C105.681 134.5 105.555 134.545 105.43 134.59C105.364 134.613 105.3 134.638 105.234 134.66C105.062 134.721 104.89 134.779 104.717 134.835C104.701 134.84 104.685 134.846 104.669 134.851C104.498 134.906 104.326 134.959 104.154 135.011C104.123 135.02 104.091 135.031 104.06 135.04C103.896 135.089 103.731 135.135 103.567 135.18C103.529 135.191 103.492 135.201 103.455 135.211C103.301 135.252 103.147 135.292 102.993 135.331C102.939 135.344 102.884 135.358 102.83 135.371C102.689 135.405 102.549 135.438 102.408 135.47C102.35 135.483 102.291 135.496 102.233 135.509C101.862 135.59 101.49 135.663 101.118 135.727C101.099 135.731 101.081 135.734 101.062 135.737C100.885 135.767 100.708 135.795 100.531 135.821C100.506 135.825 100.48 135.829 100.455 135.832C100.274 135.859 100.092 135.884 99.9108 135.907C99.8901 135.909 99.8693 135.912 99.8486 135.914C99.6717 135.936 99.4947 135.955 99.3176 135.973C99.2895 135.976 99.2614 135.978 99.2334 135.981C98.8477 136.019 98.462 136.048 98.0761 136.068C98.0643 136.069 98.0525 136.069 98.0407 136.069C97.8633 136.078 97.6859 136.086 97.5085 136.091C97.4662 136.092 97.4239 136.094 97.3815 136.095C97.011 136.104 96.6406 136.106 96.2707 136.1C96.2451 136.099 96.2194 136.098 96.1938 136.097C94.3968 136.06 92.6106 135.84 90.8654 135.437C88.7273 134.943 86.6521 134.177 84.6936 133.155C84.6711 133.144 84.6488 133.132 84.6264 133.12C84.2871 132.942 83.9513 132.756 83.6193 132.562C83.6026 132.552 83.586 132.543 83.5693 132.533C83.0564 132.232 82.5526 131.913 82.0593 131.576C82.0465 131.567 82.0342 131.558 82.0214 131.549C81.7074 131.333 81.3978 131.11 81.0925 130.88C81.063 130.858 81.0328 130.836 81.0034 130.814C80.88 130.72 80.7578 130.625 80.6359 130.528C80.5878 130.49 80.5398 130.452 80.4919 130.414C80.378 130.322 80.2639 130.231 80.1513 130.138C80.0878 130.085 80.0252 130.031 79.9621 129.978C79.8681 129.898 79.7743 129.818 79.6813 129.737C79.622 129.686 79.5633 129.633 79.5043 129.581C79.4163 129.503 79.3278 129.425 79.2407 129.345C79.1739 129.285 79.1079 129.223 79.0417 129.161C78.9403 129.067 78.839 128.972 78.739 128.876C78.6687 128.808 78.5998 128.739 78.5302 128.67C78.4581 128.599 78.3856 128.529 78.3142 128.457C78.257 128.399 78.2011 128.34 78.1445 128.282C78.0547 128.19 77.9646 128.098 77.8759 128.004C77.7904 127.913 77.7064 127.821 77.622 127.729C77.5693 127.672 77.5156 127.615 77.4633 127.557C77.3735 127.457 77.2857 127.356 77.1972 127.254C77.1425 127.192 77.0867 127.13 77.0324 127.066C76.9572 126.979 76.8833 126.889 76.809 126.8C76.7429 126.721 76.6754 126.643 76.6101 126.562C76.544 126.481 76.48 126.398 76.4147 126.316C76.3502 126.234 76.2844 126.154 76.2207 126.072C76.0361 125.833 75.8572 125.589 75.6799 125.343C75.4763 125.06 75.2755 124.773 75.0817 124.48L74.7204 123.917L57.3095 96.0532C54.8818 92.1681 58.5078 80.9997 77.4292 83.4812C78.3799 83.6059 79.3032 83.7029 80.1989 83.7754C80.4143 83.2253 80.6256 82.6599 80.8313 82.0786L81.1499 81.1558ZM99.1491 69.9082C98.71 69.206 96.5644 67.8972 93.3874 68.9915C90.4017 70.0201 86.4032 73.3493 83.5205 81.9505C83.2948 82.6237 83.0605 83.2791 82.821 83.9182C94.5571 84.2384 100.962 79.9072 102.31 74.9656L99.1491 69.9082Z" fill="#CB6441"/>
<path fill-rule="evenodd" clip-rule="evenodd" d="M51.036 15.108C53.8009 14.8546 56.5772 15.0495 59.2575 15.6683C64.3304 16.8394 69.0444 19.5273 72.6718 23.5601C72.6885 23.5788 72.7051 23.5976 72.7218 23.6163C73.3959 24.3701 74.0325 25.1701 74.6261 26.0162C74.7466 26.1878 74.8644 26.362 74.9813 26.5374C75.1242 26.7518 75.2663 26.9681 75.4037 27.188L92.8146 55.0518C95.2419 58.9372 91.6147 70.1053 72.6937 67.6238C71.7425 67.4991 70.8189 67.4009 69.9227 67.3284C69.5951 68.1655 69.279 69.0387 68.9743 69.9481L68.6849 70.783C62.548 87.9906 51.2437 86.3454 48.8534 82.5213L31.4425 54.6575C31.2604 54.3661 31.0856 54.0719 30.9164 53.7762C30.7898 53.5548 30.6671 53.3321 30.5477 53.1085C30.5228 53.0619 30.4966 53.016 30.4721 52.9693C30.4203 52.8709 30.3711 52.7714 30.3207 52.6727C30.1679 52.3731 30.0202 52.0724 29.88 51.7693C29.8304 51.6619 29.7828 51.5537 29.7348 51.4459C29.6952 51.3571 29.6549 51.2688 29.6163 51.1797C29.5904 51.1196 29.5649 51.0593 29.5394 50.9991C29.3949 50.6579 29.2582 50.3148 29.1293 49.97C29.102 49.8969 29.0753 49.8236 29.0487 49.7503C29.0082 49.6389 28.968 49.5276 28.9291 49.4158C28.904 49.3436 28.8803 49.2709 28.8558 49.1985C28.5342 48.2469 28.271 47.2844 28.0648 46.3152C28.0576 46.2814 28.0499 46.2478 28.0429 46.2139C27.3138 42.7173 27.3271 39.1401 28.0343 35.7049L28.1661 35.097C29.4949 29.3418 32.7741 24.0446 37.7597 20.2728C37.9275 20.1458 38.097 20.0203 38.2687 19.8968C38.3701 19.8239 38.4711 19.75 38.5739 19.6783C38.7557 19.5514 38.9396 19.4264 39.1256 19.3035C39.3111 19.181 39.4988 19.0607 39.6884 18.9422L40.2597 18.5943C40.9573 18.1825 41.6673 17.8083 42.3861 17.4688C42.4476 17.4398 42.5089 17.4106 42.5704 17.3821C43.6931 16.8627 44.8388 16.432 45.9982 16.0845C46.0516 16.0685 46.1046 16.0513 46.1581 16.0357C46.3002 15.9941 46.4428 15.9551 46.5853 15.9161C46.6449 15.8998 46.704 15.8819 46.7636 15.866C48.1573 15.4949 49.5689 15.2466 50.9835 15.1141C51.0011 15.1124 51.0185 15.1096 51.036 15.108ZM67.3019 67.1856C55.5677 66.8656 49.1617 71.1963 47.8134 76.137L50.9738 81.1956C51.4125 81.8978 53.5583 83.2078 56.7355 82.1136C59.7213 81.085 63.7209 77.7562 66.6037 69.1546C66.8293 68.4812 67.0624 67.8249 67.3019 67.1856Z" fill="#CB6441"/>
<path d="M202.218 42.5277C210.051 42.5277 216.439 44.6857 221.301 49.0696C226.26 53.3941 228.707 59.3878 228.707 66.9438C228.707 72.1654 227.281 77.1074 224.445 81.7569L224.445 81.7571C221.694 86.3155 217.928 90.2732 213.162 93.6329L213.162 93.6327C208.795 96.7616 203.988 99.1429 198.746 100.777L210.096 114.938C211.816 117.014 213.753 117.984 215.927 117.984C218.659 117.984 222.106 116.081 226.305 111.882L226.843 111.344L230.352 114.519L229.943 115.098C227.137 119.073 223.974 122.434 220.45 125.175C216.881 127.951 213.141 129.376 209.245 129.376C206.565 129.376 204.079 128.683 201.803 127.301L201.797 127.298L201.792 127.294C199.601 125.915 197.19 123.486 194.558 120.079L181.36 103.047V125.113L165.821 130.507V63.4857L181.36 58.3487V100.019L181.739 98.2502L182.298 98.1763C187.419 97.4986 192.276 95.88 196.875 93.3169C201.536 90.6848 205.282 87.3098 208.126 83.193L208.127 83.1918L208.128 83.1905C211.027 79.0275 212.477 74.3495 212.477 69.1326C212.477 63.6875 210.916 59.4504 207.866 56.3283L207.863 56.3249L207.86 56.3215C204.915 53.2336 200.363 51.6157 194.039 51.6157C188.791 51.6157 183.372 52.8522 177.776 55.348C172.243 57.8493 167.205 61.1076 162.658 65.1241L162.073 65.6407L158 61.2543L158.591 60.7102C164.415 55.3523 171.053 51.0054 178.499 47.6693C185.978 44.2415 193.887 42.5277 202.218 42.5277Z" fill="#3D3826"/>
<path d="M390.444 42.5277C398.277 42.5277 404.665 44.6857 409.527 49.0696C414.486 53.3941 416.933 59.3877 416.933 66.9438C416.933 73.5143 414.712 79.5994 410.31 85.1799L410.307 85.1843C405.921 90.6663 400.213 95.04 393.201 98.3119L393.2 98.3127L393.198 98.3135C386.262 101.509 379.121 103.11 371.781 103.11C371.08 103.11 370.425 103.084 369.817 103.031V125.117L354.277 130.383V63.6054L369.817 58.3401V98.1937L369.948 98.1763C375.069 97.4987 380.004 95.8799 384.76 93.3144C389.499 90.6807 393.322 87.3038 396.242 83.1851L396.243 83.1838L396.244 83.1827C399.217 79.0201 400.703 74.3449 400.703 69.1326C400.703 63.6875 399.142 59.4504 396.092 56.3283L396.089 56.3249L396.086 56.3215C393.141 53.2336 388.589 51.6157 382.265 51.6157C377.017 51.6157 371.598 52.8522 366.002 55.348C360.47 57.8493 355.431 61.1075 350.884 65.1241L350.299 65.6407L346.226 61.2543L346.817 60.7102C352.643 55.3508 359.282 51.003 366.731 47.6665C374.208 44.2406 382.115 42.5277 390.444 42.5277Z" fill="#3D3826"/>
<path fill-rule="evenodd" clip-rule="evenodd" d="M264.278 67.7565C268.871 67.7565 272.773 68.9459 275.93 71.3705C279.161 73.7731 280.745 77.2947 280.745 81.8046C280.745 85.5462 278.716 89.6081 274.903 93.9657C271.171 98.2418 266.708 102.238 261.519 105.956L261.517 105.957C256.815 109.305 252.712 111.817 249.215 113.475C252.267 117.871 256.568 120.057 262.205 120.057C265.504 120.057 268.826 119.142 272.179 117.281C275.617 115.337 278.53 112.798 280.922 109.659L281.53 108.861L284.895 112.898L284.487 113.408C280.449 118.456 276.159 122.401 271.612 125.223L271.61 125.224L271.609 125.226C267.084 128.004 261.711 129.376 255.523 129.376C250.482 129.376 245.928 128.232 241.88 125.93L241.874 125.927C237.913 123.63 234.779 120.496 232.482 116.536L232.477 116.527L232.473 116.519C230.253 112.475 229.149 107.963 229.149 103.001C229.149 97.0125 230.766 91.3043 233.984 85.8887L233.985 85.8872L233.986 85.8857C237.277 80.3998 241.632 76.0053 247.043 72.7116C252.461 69.4136 258.211 67.7565 264.278 67.7565ZM257.712 76.8446C255.013 76.8446 252.593 77.8308 250.424 79.8551L250.413 79.8647C248.214 81.8444 246.475 84.4241 245.208 87.6283C243.939 90.8376 243.305 94.1554 243.305 97.5869C243.305 101.758 244.144 105.339 245.793 108.356C248.369 106.816 251.088 104.76 253.95 102.178L254.246 101.907C257.294 99.1094 259.837 96.1409 261.88 93.0032C263.983 89.7735 264.976 86.9307 264.976 84.4541C264.976 81.9114 264.289 80.0667 263.021 78.799L263.014 78.7913L263.006 78.7835C261.812 77.5232 260.087 76.8446 257.712 76.8446Z" fill="#3D3826"/>
<path fill-rule="evenodd" clip-rule="evenodd" d="M339.411 116.134C339.411 117.073 339.607 117.885 339.982 118.59C340.357 119.105 340.865 119.366 341.606 119.366C342.363 119.366 343.185 119.049 344.085 118.288L344.096 118.279L344.107 118.27C345.113 117.479 345.84 116.639 346.316 115.755L346.789 114.877L350.554 118.129L350.267 118.689C348.829 121.483 346.834 123.876 344.288 125.865L344.285 125.868C341.777 127.809 339.035 128.8 336.077 128.8C331.952 128.8 328.794 127.687 326.818 125.282L326.814 125.277L326.81 125.271C325.205 123.247 324.344 120.421 324.143 116.878C322.479 120.126 320.42 122.917 317.964 125.24L317.96 125.244L317.956 125.248C314.961 128 311.348 129.376 307.161 129.376C302.795 129.376 299.016 128.262 295.866 126C292.744 123.759 290.389 120.759 288.8 117.023L288.799 117.021L288.797 117.018C287.216 113.223 286.432 109.047 286.432 104.499C286.432 98.7044 287.607 93.0306 289.951 87.4835L289.953 87.4785C292.383 81.8348 295.879 77.1945 300.444 73.5746C305.045 69.9249 310.406 68.1021 316.493 68.1021C319.145 68.1021 321.608 68.6507 323.872 69.7516V25.0179L339.411 19.624V116.134ZM316.262 77.0749C312.782 77.0749 309.92 78.262 307.621 80.6335L307.62 80.6333C305.337 82.9901 303.63 85.9487 302.511 89.5312L302.51 89.5335L302.509 89.5358C301.381 93.0725 300.819 96.5617 300.819 100.006C300.819 104.66 301.719 109.082 303.517 113.28C304.435 115.333 305.584 116.817 306.937 117.788C308.284 118.756 309.884 119.251 311.77 119.251C314.086 119.251 315.985 118.665 317.515 117.535C319.049 116.402 320.275 114.674 321.157 112.286C322.964 107.314 323.872 101.917 323.872 96.0893V80.4126C321.526 78.1575 318.996 77.0749 316.262 77.0749Z" fill="#3D3826"/>
<path d="M435.848 116.595C435.848 117.625 436.088 118.357 436.486 118.869C436.863 119.353 437.353 119.596 438.043 119.596C439.57 119.596 441.321 118.519 443.276 115.887L443.844 115.123L446.974 118.427L446.693 118.939C444.945 122.116 442.665 124.567 439.846 126.261L439.846 126.261C437.131 127.938 434.376 128.8 431.592 128.8C427.942 128.8 425.068 127.742 423.125 125.5C421.201 123.28 420.309 120.033 420.309 115.904V73.8626L435.848 68.4688V116.595Z" fill="#3D3826"/>
<path d="M467.127 116.595C467.127 117.454 467.322 118.183 467.69 118.808C468.054 119.314 468.592 119.596 469.438 119.596C470.29 119.596 471.196 119.265 472.169 118.5L472.18 118.492L472.19 118.484C473.283 117.683 474.138 116.823 474.77 115.909L475.331 115.099L478.468 118.41L478.217 118.911C476.85 121.645 474.843 123.969 472.212 125.882L472.212 125.882C469.631 127.815 466.818 128.8 463.793 128.8C459.928 128.8 456.887 127.751 454.825 125.519C452.773 123.298 451.819 120.044 451.819 115.904V25.0254L467.127 19.4937V116.595Z" fill="#3D3826"/>
<path d="M498.744 116.595C498.744 117.454 498.939 118.183 499.307 118.808C499.671 119.314 500.208 119.596 501.055 119.596C501.907 119.596 502.813 119.265 503.786 118.5L503.797 118.492L503.807 118.484C504.9 117.683 505.755 116.823 506.387 115.909L506.948 115.099L510.085 118.41L509.834 118.911C508.467 121.645 506.459 123.969 503.829 125.882C501.248 127.815 498.435 128.8 495.41 128.8C491.545 128.8 488.504 127.751 486.442 125.519C484.39 123.298 483.436 120.044 483.436 115.904V25.0254L498.744 19.4937V116.595Z" fill="#3D3826"/>
<path d="M432.08 58.1087L423.491 60.8351L418.461 35.1912L436.377 29.1332L432.08 58.1087Z" fill="#3D3826"/>
</svg>
